<?xml version="1.0" encoding="UTF-8" standalone="no"?>
<svg
   xmlns:dc="http://purl.org/dc/elements/1.1/"
   xmlns:cc="http://creativecommons.org/ns#"
   xmlns:rdf="http://www.w3.org/1999/02/22-rdf-syntax-ns#"
   xmlns:svg="http://www.w3.org/2000/svg"
   xmlns="http://www.w3.org/2000/svg"
   shape-rendering="crispEdges"
   width="88"
   height="53"
   viewBox="0 0 23.283333 14.022917"
   version="1.1"
   id="svg2296">
  <title
     id="title2859">Beagle Bros Clip Art - Inchworm</title>
  <defs
     id="defs2290" />
  <metadata
     id="metadata2293">
    <rdf:RDF>
      <cc:Work
         rdf:about="">
        <dc:format>image/svg+xml</dc:format>
        <dc:type
           rdf:resource="http://purl.org/dc/dcmitype/StillImage" />
        <dc:title>Beagle Bros Clip Art - Inchworm</dc:title>
        <cc:license
           rdf:resource="http://creativecommons.org/publicdomain/zero/1.0/" />
        <dc:creator>
          <cc:Agent>
            <dc:title>Beagle Bros</dc:title>
          </cc:Agent>
        </dc:creator>
        <dc:publisher>
          <cc:Agent>
            <dc:title>Openclipart.org</dc:title>
          </cc:Agent>
        </dc:publisher>
        <dc:identifier>https://openclipart.org/</dc:identifier>
        <dc:subject>
          <rdf:Bag>
            <rdf:li>Beagle Bros</rdf:li>
            <rdf:li>retro</rdf:li>
            <rdf:li>8-bit</rdf:li>
            <rdf:li>8bit</rdf:li>
            <rdf:li>8 bit</rdf:li>
            <rdf:li>old school</rdf:li>
            <rdf:li>OldSchool</rdf:li>
            <rdf:li>old skool</rdf:li>
            <rdf:li>OldSkool</rdf:li>
            <rdf:li>low res</rdf:li>
            <rdf:li>LowRes</rdf:li>
            <rdf:li>Apple IIGS</rdf:li>
            <rdf:li>pixel art</rdf:li>
            <rdf:li>PixelArt</rdf:li>
            <rdf:li>Geometridae</rdf:li>
            <rdf:li>inchworm</rdf:li>
            <rdf:li>caterpillar</rdf:li>
            <rdf:li>moth</rdf:li>
            <rdf:li>butterfly</rdf:li>
            <rdf:li>insect</rdf:li>
            <rdf:li>bug</rdf:li>
          </rdf:Bag>
        </dc:subject>
        <dc:description>inchworm - Retro 8-bit bitmap style graphic from the  Beagle Bros Clip Art for the Apple IIGS.</dc:description>
        <dc:contributor>
          <cc:Agent>
            <dc:title>conversion to SVG... Arvin61r58 (https://openclipart.org/user-detail/Arvin61r58)</dc:title>
          </cc:Agent>
        </dc:contributor>
      </cc:Work>
      <cc:License
         rdf:about="http://creativecommons.org/publicdomain/zero/1.0/">
        <cc:permits
           rdf:resource="http://creativecommons.org/ns#Reproduction" />
        <cc:permits
           rdf:resource="http://creativecommons.org/ns#Distribution" />
        <cc:permits
           rdf:resource="http://creativecommons.org/ns#DerivativeWorks" />
      </cc:License>
    </rdf:RDF>
  </metadata>
  <g
     id="layer1"
     transform="translate(-93.358336,-141.62083)">
    <title
       id="title4063">Beagle Bros - Inchworm</title>
    <g
       style="shape-rendering:crispEdges"
       id="g4635"
       transform="matrix(0.37500004,0,0,0.37500004,74.721743,85.907547)">
      <path
         style="fill:#87fe87;stroke-width:0.35277778"
         d="m 102.61424,176.79096 h -2.82222 v -0.70556 -0.70555 h -1.411111 -1.411111 v -0.70556 -0.70555 h -1.411111 -1.411111 v -1.41111 -1.41112 h -6.35 -6.35 v 0.70556 0.70556 h -1.411111 -1.411111 v 0.70555 0.70556 h -0.705556 -0.705555 v 0.70555 0.70556 h -4.233334 -4.233333 v -0.70556 -0.70555 h -0.705555 -0.705556 v -0.70556 -0.70555 h -0.705556 -0.705555 v -0.70556 -0.70556 h -0.705556 -0.705555 v -0.70555 -0.70556 h -0.705556 -0.705555 v -0.70555 -0.70556 h -2.116667 -2.116667 v -0.70555 -0.70556 h -0.705555 -0.705556 v -1.41111 -1.41111 h -0.705555 -0.705556 v -0.70556 -0.70555 h -0.705555 -0.705556 v -4.23333 -4.23334 h 0.705556 0.705555 v -0.70555 -0.70556 h 4.938889 4.938889 v 0.70556 0.70555 h 0.705555 0.705556 v 4.23334 4.23333 h -0.705556 -0.705555 v 2.11666 2.11667 h 0.705555 0.705556 v 0.70556 0.70555 h 0.705556 0.705555 v 0.70556 0.70555 h 0.705556 0.705555 v 0.70556 0.70555 h 1.411111 1.411111 v 0.70556 0.70556 h 2.116667 2.116667 v -0.70556 -0.70556 h 0.705555 0.705556 v -0.70555 -0.70556 h 1.411111 1.411111 v -0.70555 -0.70556 h 1.411111 1.411111 v -0.70555 -0.70556 h 3.527778 3.527778 v 0.70556 0.70555 h 1.411111 1.411111 v 0.70556 0.70555 h 0.705556 0.705555 v 0.70556 0.70555 h 1.411111 1.411111 v 0.70556 0.70556 h 0.705556 0.705555 v 0.70555 0.70556 h 0.70556 0.70555 v 0.70555 0.70556 h 2.11666 2.11667 v 0.70555 0.70556 z m -41.627775,-12.7 h 0.705556 v -0.70556 -0.70555 h 0.705555 0.705556 v -0.70556 -0.70555 h -2.116667 -2.116667 v 0.70555 0.70556 h 0.705556 0.705556 v 0.70555 0.70556 z m -2.822222,-4.23333 h 2.116667 v -2.11667 -2.11667 h -0.705556 -0.705556 v -0.70555 -0.70556 h -0.705555 -0.705556 v 0.70556 0.70555 h -0.705555 -0.705556 v 2.11667 2.11667 z m 5.644444,0 h 2.116667 v -2.11667 -2.11667 h -0.705556 -0.705555 v -0.70555 -0.70556 h -0.705556 -0.705555 v 0.70556 0.70555 h -0.705556 -0.705555 v 2.11667 2.11667 z"
         id="path4565" />
      <path
         style="fill:#ffffff;stroke-width:0.35277778"
         d="m 56.753132,158.44652 h -0.705556 v -0.70556 -0.70556 h 0.705556 0.705555 v -0.70555 -0.70556 h 0.705556 0.705555 v 0.70556 0.70555 h -0.705555 -0.705556 v 0.70556 0.70556 z m 5.644444,0 h -0.705555 v -0.70556 -0.70556 h 0.705555 0.705556 v -0.70555 -0.70556 h 0.705555 0.705556 v 0.70556 0.70555 h -0.705556 -0.705555 v 0.70556 0.70556 z"
         id="path4563" />
      <path
         style="fill:#98fe00;stroke-width:0.35277778"
         d="m 70.864243,178.20207 h -0.705556 v -0.70556 -0.70555 h -0.705555 -0.705556 v -0.70556 -0.70555 h -0.705555 -0.705556 v 0.70555 0.70556 h -0.705556 -0.705555 v -0.70556 -0.70555 h -0.705556 -0.705555 v -0.70556 -0.70555 h -0.705556 -0.705555 v -0.70556 -0.70555 h -0.705556 -0.705555 v -0.70556 -0.70556 H 60.986465 60.28091 v -0.70555 -0.70556 h -0.705556 -0.705556 v -0.70555 -0.70556 h 0.705556 0.705556 v 0.70556 0.70555 h 0.705555 0.705556 v -0.70555 -0.70556 h 0.705555 0.705556 v 0.70556 0.70555 h 0.705555 0.705556 v 0.70556 0.70555 h 0.705555 0.705556 v 0.70556 0.70556 h 0.705555 0.705556 v 0.70555 0.70556 h 0.705556 0.705555 v 0.70555 0.70556 h 0.705556 0.705555 v 0.70555 0.70556 h 0.705556 0.705555 v -0.70556 -0.70555 h 0.705556 0.705555 v 0.70555 0.70556 h 0.705556 0.705556 v -0.70556 -0.70555 h 0.705555 0.705556 v 0.70555 0.70556 h 0.705555 0.705556 v -1.41111 -1.41111 h 0.705555 0.705556 v -0.70556 -0.70555 h 1.411111 1.411111 v -0.70556 -0.70556 h 2.116667 2.116666 v 0.70556 0.70556 h -1.411111 -1.411111 v 1.41111 1.41111 h -0.705555 -0.705556 v -0.70556 -0.70555 h -0.705555 -0.705556 v 0.70555 0.70556 h -0.705556 -0.705555 v 0.70555 0.70556 h -0.705556 -0.705555 v 0.70555 0.70556 h -0.705556 -0.705555 v -0.70556 -0.70555 h -0.705556 -0.705555 v 0.70555 0.70556 h -0.705556 -0.705556 v -0.70556 -0.70555 h -0.705555 -0.705556 v 0.70555 0.70556 z m -4.233334,-2.82222 h 0.705556 v -0.70556 -0.70555 h -0.705556 -0.705555 v -0.70556 -0.70555 h -0.705556 -0.705555 v -0.70556 -0.70556 h -0.705556 -0.705555 v -0.70555 -0.70556 h -0.705556 -0.705555 v 0.70556 0.70555 h 0.705555 0.705556 v 0.70556 0.70556 h 0.705555 0.705556 v 0.70555 0.70556 h 0.705555 0.705556 v 0.70555 0.70556 z m 33.866671,2.82222 h -0.70556 v -0.70556 -0.70555 h -0.705555 -0.705556 v -0.70556 -0.70555 h 0.705556 0.705555 v 0.70555 0.70556 h 0.70556 0.70555 v 0.70555 0.70556 z m 2.82221,0 h -0.70555 v -0.70556 -0.70555 h 0.70555 0.70556 v 0.70555 0.70556 z m -7.055547,-1.41111 h -0.705556 v -1.41111 -1.41111 h 0.705556 0.705555 v 1.41111 1.41111 z m -2.822223,-1.41111 h -0.705555 v -0.70556 -0.70555 h -0.705556 -0.705555 v -0.70556 -0.70555 h -0.705556 -0.705555 v -0.70556 -0.70556 h 2.116666 2.116667 v 2.11667 2.11667 z m -5.644444,-2.82222 H 87.09202 v -0.70556 -0.70556 h 0.705556 0.705556 v 0.70556 0.70556 z"
         id="path4561" />
      <path
         style="fill:#878787;stroke-width:0.35277778"
         d="m 72.275354,182.4354 h -0.705556 v -0.70555 -0.70556 h -0.705555 -0.705556 v -0.70555 -0.70556 h 0.705556 0.705555 v 0.70556 0.70555 h 0.705556 0.705555 v -0.70555 -0.70556 h 0.705556 0.705556 v 0.70556 0.70555 h 0.705555 0.705556 v -0.70555 -0.70556 h 0.705555 0.705556 v 0.70556 0.70555 h 0.705555 0.705556 v -0.70555 -0.70556 h 0.705555 0.705556 v 0.70556 0.70555 h -0.705556 -0.705555 v 0.70556 0.70555 h -0.705556 -0.705555 v -0.70555 -0.70556 h -0.705556 -0.705555 v 0.70556 0.70555 h -0.705556 -0.705555 v -0.70555 -0.70556 h -0.705556 -0.705556 v 0.70556 0.70555 z m 28.222226,0 h -0.70556 v -0.70555 -0.70556 h -0.705555 -0.705556 v -0.70555 -0.70556 h 0.705556 0.705555 v 0.70556 0.70555 h 0.70556 0.70555 v -0.70555 -0.70556 h 0.70556 0.70555 v 0.70556 0.70555 h 0.70555 0.70556 v -0.70555 -0.70556 h 0.70556 0.70555 v 0.70556 0.70555 h -0.70555 -0.70556 v 0.70556 0.70555 h -0.70556 -0.70555 v -0.70555 -0.70556 h -0.70555 -0.70556 v 0.70556 0.70555 z m -35.277782,-1.41111 h -0.705555 v -0.70555 -0.70556 h 0.705555 0.705556 v 0.70556 0.70555 z m 2.822223,0 h -0.705556 v -0.70555 -0.70556 h 0.705556 0.705555 v 0.70556 0.70555 z m 14.111111,0 h -0.705556 v -0.70555 -0.70556 h 0.705556 0.705555 v 0.70556 0.70555 z m 2.822222,0 h -0.705556 v -0.70555 -0.70556 h 0.705556 0.705555 v 0.70556 0.70555 z m 2.822222,0 H 87.09202 v -0.70555 -0.70556 h 0.705556 0.705556 v 0.70556 0.70555 z m 2.822222,0 h -0.705555 v -0.70555 -0.70556 h 0.705555 0.705556 v 0.70556 0.70555 z m 2.822222,0 h -0.705555 v -0.70555 -0.70556 h 0.705555 0.705556 v 0.70556 0.70555 z m 2.822223,0 h -0.705556 v -0.70555 -0.70556 h 0.705556 0.705555 v 0.70556 0.70555 z m 11.288887,0 h -0.70556 v -0.70555 -0.70556 h 0.70556 0.70555 v 0.70556 0.70555 z"
         id="path4559" />
      <path
         style="fill:#219821;stroke-width:0.35277778"
         d="m 69.453132,178.20207 h -0.705556 v -0.70556 -0.70555 h -0.705555 -0.705556 v -0.70556 -0.70555 h -0.705556 -0.705555 v -0.70556 -0.70555 h -0.705556 -0.705555 v -0.70556 -0.70555 h -0.705556 -0.705555 v -0.70556 -0.70556 h -0.705556 -0.705555 v -0.70555 -0.70556 H 60.986465 60.28091 v -0.70555 -0.70556 h 0.705555 0.705556 v 0.70556 0.70555 h 0.705555 0.705556 v 0.70556 0.70555 h 0.705555 0.705556 v 0.70556 0.70556 h 0.705555 0.705556 v 0.70555 0.70556 h 0.705555 0.705556 v 0.70555 0.70556 h 0.705556 0.705555 v 0.70555 0.70556 h 0.705556 0.705555 v -0.70556 -0.70555 h 0.705556 0.705555 v 0.70555 0.70556 h 0.705556 0.705555 v -0.70556 -0.70555 h 0.705556 0.705556 v 0.70555 0.70556 h 0.705555 0.705556 v -0.70556 -0.70555 h 0.705555 0.705556 v 0.70555 0.70556 h -0.705556 -0.705555 v 0.70555 0.70556 h -0.705556 -0.705555 v -0.70556 -0.70555 h -0.705556 -0.705556 v 0.70555 0.70556 h -0.705555 -0.705556 v -0.70556 -0.70555 h -0.705555 -0.705556 v 0.70555 0.70556 z m 29.633333,0 h -0.705556 v -0.70556 -0.70555 h -0.705555 -0.705556 v -0.70556 -0.70555 h 0.705556 0.705555 v 0.70555 0.70556 h 0.705556 0.705555 v 0.70555 0.70556 z m 2.822225,0 h -0.70556 v -0.70556 -0.70555 h 0.70556 0.70555 v 0.70555 0.70556 z m 2.82222,0 h -0.70556 v -0.70556 -0.70555 h 0.70556 0.70555 v 0.70555 0.70556 z m -25.400001,-1.41111 h -0.705555 v -0.70556 -0.70555 h 0.705555 0.705556 v -0.70556 -0.70555 h 0.705556 0.705555 v 0.70555 0.70556 h -0.705555 -0.705556 v 0.70555 0.70556 z m 15.522223,-1.41111 h -0.705556 v -0.70556 -0.70555 h 0.705556 0.705555 v 0.70555 0.70556 z m -11.288889,-1.41111 h -0.705556 v -0.70556 -0.70555 h 0.705556 0.705555 v 0.70555 0.70556 z m 7.055555,0 h -0.705555 v -0.70556 -0.70555 h -0.705556 -0.705555 v -0.70556 -0.70556 h 0.705555 0.705556 v 0.70556 0.70556 h 0.705555 0.705556 v 0.70555 0.70556 z m -4.233333,-1.41111 h -0.705556 v -0.70556 -0.70556 h 0.705556 0.705555 v 0.70556 0.70556 z"
         id="path4557" />
      <path
         style="fill:#000000;stroke-width:0.35277778"
         d="m 72.980909,179.61318 h -4.233333 v -0.70555 -0.70556 h -1.411111 -1.411111 v -0.70556 -0.70555 h -0.705556 -0.705555 v -0.70556 -0.70555 h -0.705556 -0.705555 v -0.70556 -0.70555 h -0.705556 -0.705555 v -0.70556 -0.70555 H 60.986465 60.28091 v -0.70556 -0.70556 h -0.705556 -0.705556 v -0.70555 -0.70556 h -0.705555 -0.705556 v -1.41111 -1.41111 h -0.705555 -0.705556 v -1.41111 -1.41111 h -0.705555 -0.705556 v -0.70556 -0.70555 H 53.93091 53.225354 v -4.23333 -4.23334 h 0.705556 0.705555 v -0.70555 -0.70556 h 0.705556 0.705555 v -0.70555 -0.70556 h 4.938889 4.938889 v 0.70556 0.70555 h 0.705555 0.705556 v 0.70556 0.70555 h 0.705556 0.705555 v 4.23334 4.23333 h -0.705555 -0.705556 v 2.11666 2.11667 h 0.705556 0.705555 v 0.70556 0.70555 h 0.705556 0.705555 v 0.70556 0.70555 h 1.411111 1.411111 v 0.70556 0.70555 h 2.116667 2.116667 v -0.70555 -0.70556 h 0.705555 0.705556 v -0.70555 -0.70556 h 1.411111 1.411111 v -0.70555 -0.70556 h 1.411111 1.411111 v -0.70555 -0.70556 h 3.527778 3.527778 v 0.70556 0.70555 h 1.411111 1.411111 v 0.70556 0.70555 h 0.705556 0.705555 v 0.70556 0.70555 h 1.411111 1.411111 v 0.70556 0.70555 h 0.705556 0.705555 v 0.70556 0.70556 h 0.70556 0.70555 v 0.70555 0.70556 h 2.11666 2.11667 v 0.70555 0.70556 h 0.70556 0.70555 v 1.41111 1.41111 h -0.70555 -0.70556 v 0.70556 0.70555 h -3.52777 -3.527781 v -0.70555 -0.70556 h -1.411111 -1.411111 v -0.70556 -0.70555 h -1.411111 -1.411111 v -0.70556 -0.70555 h -1.411111 -1.411111 v -0.70556 -0.70555 H 87.09202 84.269798 v 0.70555 0.70556 h -0.705555 -0.705556 v 0.70555 0.70556 h -1.411111 -1.411111 v 0.70555 0.70556 h -1.411111 -1.411111 v 0.70556 0.70555 z m 0,-1.41111 h 4.233334 v -0.70556 -0.70555 h 1.411111 1.411111 v -0.70556 -0.70555 h 1.411111 1.411111 v -0.70556 -0.70555 h 0.705556 0.705555 v -0.70556 -0.70555 h 2.822222 2.822223 v 0.70555 0.70556 h 1.411111 1.411111 v 0.70555 0.70556 h 1.411111 1.411111 v 0.70555 0.70556 h 1.411111 1.411111 v 0.70555 0.70556 h 3.527781 3.52777 v -1.41111 -1.41111 h -2.11667 -2.11666 v -0.70556 -0.70555 h -0.70555 -0.70556 v -0.70556 -0.70555 h -0.705555 -0.705556 v -0.70556 -0.70556 h -1.411111 -1.411111 v -0.70555 -0.70556 h -0.705555 -0.705556 v -0.70555 -0.70556 h -1.411111 -1.411111 v -0.70555 -0.70556 h -3.527778 -3.527778 v 0.70556 0.70555 h -1.411111 -1.411111 v 0.70556 0.70555 h -1.411111 -1.411111 v 0.70556 0.70555 h -0.705556 -0.705555 v 0.70556 0.70556 h -2.116667 -2.116667 v -0.70556 -0.70556 h -1.411111 -1.411111 v -0.70555 -0.70556 h -0.705555 -0.705556 v -0.70555 -0.70556 h -0.705555 -0.705556 v -0.70555 -0.70556 h -0.705556 -0.705555 v -2.11667 -2.11666 h 0.705555 0.705556 v -4.23333 -4.23334 h -0.705556 -0.705555 v -0.70555 -0.70556 h -4.938889 -4.938889 v 0.70556 0.70555 h -0.705555 -0.705556 v 4.23334 4.23333 h 0.705556 0.705555 v 0.70555 0.70556 h 0.705556 0.705555 v 1.41111 1.41111 h 0.705556 0.705555 v 1.41111 1.41111 h 0.705556 0.705556 v 0.70556 0.70555 h 0.705555 0.705556 v 0.70556 0.70556 h 0.705555 0.705556 v 0.70555 0.70556 h 0.705555 0.705556 v 0.70555 0.70556 h 0.705555 0.705556 v 0.70555 0.70556 h 1.411111 1.411111 v 0.70555 0.70556 z M 60.986465,164.09096 H 60.28091 v -0.70556 -0.70555 h -0.705556 -0.705556 v -0.70556 -0.70555 h 2.116667 2.116667 v 0.70555 0.70556 h -0.705556 -0.705555 v 0.70555 0.70556 z m -2.822222,-4.23333 h -2.116667 v -0.70556 -0.70555 h 0.705556 0.705555 v -0.70556 -0.70556 h -0.705555 -0.705556 v -0.70555 -0.70556 h 0.705556 0.705555 v -0.70555 -0.70556 h 0.705556 0.705555 v 0.70556 0.70555 h 0.705556 0.705556 v 2.11667 2.11667 z m 0,-2.82223 h 0.705555 v -0.70555 -0.70556 h -0.705555 -0.705556 v 0.70556 0.70555 z m 5.644444,2.82223 h -2.116666 v -0.70556 -0.70555 h 0.705555 0.705556 v -0.70556 -0.70556 h -0.705556 -0.705555 v -0.70555 -0.70556 h 0.705555 0.705556 v -0.70555 -0.70556 h 0.705555 0.705556 v 0.70556 0.70555 h 0.705555 0.705556 v 2.11667 2.11667 z m 0,-2.82223 h 0.705556 v -0.70555 -0.70556 h -0.705556 -0.705555 v 0.70556 0.70555 z"
         id="path4555" />
    </g>
  </g>
</svg>
